<svg width="511.054" height="511.1454"
   xmlns="http://www.w3.org/2000/svg">
   <path style="fill:#000" d="M232.5 510.9457c-51.2818-5.2878-99.0995-24.8399-138-56.4265-4.95-4.0193-14.8567-13.3179-22.0149-20.6635-20.429-20.964-34.0235-40.3152-46.5194-66.2185-11.883-24.6328-18.989-47.3874-23.1524-74.1372-3.1204-20.0488-3.1204-54.9512 0-75 4.3087-27.6839 11.3912-49.9849 24.1365-76 13.373-27.2963 28.2841-47.6891 51.1945-70.0149 20.964-20.429 40.3152-34.0235 66.2185-46.5194 24.6328-11.883 47.3874-18.989 74.1372-23.1524 20.0488-3.1204 54.9512-3.1204 75 0 42.9774 6.689 82.541 23.346 117.2884 49.3805 11.9148 8.9272 33.8891 30.1856 43.7308 42.3062 16.4358 20.2415 33.009 49.3616 41.8801 73.5858 5.1082 13.9488 10.294 34.394 12.7874 50.4142 3.1204 20.0488 3.1204 54.9512 0 75-6.689 42.9774-23.346 82.541-49.3805 117.2884-8.9272 11.9148-30.1856 33.8891-42.3062 43.7308-20.2506 16.4432-49.3598 33.008-73.615 41.891-13.855 5.0742-34.7264 10.3565-50.0764 12.6736-15.4034 2.3252-47.3936 3.2967-61.3086 1.862zM247 349v-7l-3.25-.022c-3.8737-.0262-10.5722-2.9322-12.9618-5.6233-2.6635-2.9995-5.7417-10.681-7.4607-18.6176-1.3196-6.0927-1.6418-19.2159-2.0376-82.9871l-.4702-75.75h-30.5702l-10.9679 24.25c-6.0322 13.3375-19.4537 43.0372-29.8254 65.9993-10.3717 22.962-19.1779 41.412-19.5693 41-.3914-.4121-14.1964-29.9993-30.6778-65.7493l-29.9663-65-16.1214-.2748L37 158.9505V344h18.986l.257-67.3398.257-67.3398 30.9934 67.3824 30.9935 67.3825 5.4978-.2927 5.4979-.2926 29.5087-65.5L188.5 212.5l.557 51c.5278 48.3254.6709 51.4103 2.7281 58.8245 6.4362 23.1952 20.7489 33.003 48.9649 33.5536L247 356Zm97.9455-53.6692c9.6289-28.143 17.7566-51.015 18.0615-50.8265.3049.1885 8.6323 23.327 18.5053 51.4192L399.4632 347h5.2332c3.964 0 5.4582-.4244 6.1609-1.75C412.2448 342.6322 474 161.6953 474 160.2475c0-.9129-2.663-1.2475-9.9282-1.2475h-9.9281l-1.9088 5.25c-1.0498 2.8875-10.628 30.9916-21.2849 62.4536-10.6568 31.462-19.4962 57.0835-19.643 56.9367-.1469-.1468-7.7558-21.8385-16.9088-48.2036-9.153-26.3652-17.9106-50.459-19.4613-53.5419-9.1146-18.12-27.4381-27.1327-51.1869-25.1769l-6.75.556v13.4463l5.3724.5545c6.3207.6523 12.6075 3.613 15.5114 7.3047 2.9235 3.7167 7.2384 13.2855 11.101 24.6178l3.3052 9.6973-11.895 35.0473c-6.5423 19.276-12.12 35.0463-12.395 35.045-.275-.001-7.689-20.8113-16.4756-46.2446-8.7866-25.4332-17.6702-49.7552-19.7414-54.0488-4.203-8.713-11.8109-17.1365-18.6098-20.605-8.1251-4.1452-19.076-5.8258-34.4689-5.2901l-5.7957.2017.2957 6.75.2957 6.75 5.1947.634c7.7922.9511 13.6968 4.2319 17.2378 9.5779 4.004 6.0447 4.8224 8.2445 33.595 90.2881 13.5983 38.775 25.1689 71.7584 25.7124 73.2965.9424 2.667 1.2478 2.7828 6.5933 2.5l5.6052-.2965z" transform="translate(-.473 -.473)"/>
</svg>